<?xml version="1.0" encoding="UTF-8" ?>
<!DOCTYPE svg PUBLIC "-//W3C//DTD SVG 1.1//EN" "http://www.w3.org/Graphics/SVG/1.1/DTD/svg11.dtd">
<svg width="24pt" height="24pt" viewBox="0 0 24 24" version="1.1" xmlns="http://www.w3.org/2000/svg">
<g id="#17151aff">
<path fill="#17151a" opacity="1.00" d=" M 0.44 7.96 C -0.09 4.18 2.93 0.11 6.94 0.48 C 12.59 0.78 19.59 -1.26 23.59 3.98 C 23.48 10.50 23.59 17.03 23.55 23.56 C 17.36 23.40 11.14 23.92 4.97 23.39 C -1.55 21.11 0.84 13.20 0.44 7.96 M 6.96 4.42 C 6.96 9.49 6.96 14.57 6.95 19.64 C 10.96 19.38 16.47 20.94 18.97 16.78 C 19.61 14.53 17.83 13.06 16.32 11.76 C 17.57 10.31 19.45 8.30 17.74 6.40 C 15.07 3.35 10.51 4.69 6.96 4.42 Z" />
</g>
<g id="#fefefeff">
<path fill="#fefefe" opacity="1.00" d=" M 6.96 4.42 C 10.51 4.69 15.07 3.35 17.74 6.40 C 19.45 8.30 17.57 10.31 16.32 11.76 C 17.83 13.06 19.61 14.53 18.97 16.78 C 16.47 20.94 10.96 19.38 6.95 19.64 C 6.96 14.57 6.96 9.49 6.96 4.42 M 10.46 6.89 C 10.41 8.14 10.37 9.39 10.32 10.64 C 11.78 10.38 13.49 10.73 14.75 9.82 C 16.13 6.97 12.22 7.12 10.46 6.89 M 10.44 12.96 C 10.42 14.41 10.40 15.86 10.38 17.32 C 12.05 16.94 15.66 17.71 15.47 15.13 C 15.41 12.60 12.12 13.42 10.44 12.96 Z" />
</g>
<g id="#030203ff">
<path fill="#030203" opacity="1.00" d=" M 10.46 6.89 C 12.22 7.12 16.13 6.97 14.75 9.82 C 13.49 10.73 11.78 10.38 10.32 10.64 C 10.37 9.39 10.41 8.14 10.46 6.89 Z" />
</g>
<g id="#050407ff">
<path fill="#050407" opacity="1.00" d=" M 10.44 12.96 C 12.12 13.42 15.41 12.60 15.47 15.13 C 15.66 17.71 12.05 16.94 10.38 17.32 C 10.40 15.86 10.42 14.41 10.44 12.96 Z" />
</g>
</svg>
